<svg width="114" height="109" viewBox="0 0 114 109" fill="none" xmlns="http://www.w3.org/2000/svg">
<g filter="url(#filter0_d_205_2)">
<rect x="4" width="106" height="100.452" rx="50" fill="white"/>
<path d="M73.4516 59.9032H73.411C72.9975 59.8936 72.598 59.752 72.2707 59.4993C71.9433 59.2465 71.7054 58.8957 71.5916 58.4981L65.4581 37.0452L61.7129 47.0323C61.5751 47.4012 61.328 47.7192 61.0046 47.944C60.6813 48.1688 60.297 48.2896 59.9032 48.2903H52.1613V44.4193H58.5619L63.8981 30.1916C64.0409 29.8101 64.3005 29.4835 64.6399 29.2581C64.9792 29.0327 65.381 28.9202 65.788 28.9365C66.1951 28.9528 66.5866 29.0971 66.9068 29.3489C67.2271 29.6006 67.4597 29.947 67.5716 30.3387L73.5929 51.42L77.4232 39.9368C77.5513 39.5514 77.7974 39.2161 78.1268 38.9784C78.4561 38.7408 78.8519 38.6129 79.2581 38.6129H87V42.4839H80.6516L75.2864 58.5793C75.1586 58.9649 74.9126 59.3004 74.5832 59.538C74.2537 59.7757 73.8578 59.9035 73.4516 59.9032ZM54.0968 73.4516H50.2258V59.9032C50.2243 58.3637 49.612 56.8877 48.5234 55.7991C47.4349 54.7105 45.9588 54.0983 44.4194 54.0968H36.6774C35.1379 54.0983 33.6619 54.7105 32.5733 55.7991C31.4847 56.8877 30.8725 58.3637 30.871 59.9032V73.4516H27V59.9032C27.0031 57.3375 28.0236 54.8778 29.8378 53.0636C31.652 51.2494 34.1118 50.2289 36.6774 50.2258H44.4194C46.985 50.2289 49.4447 51.2494 51.2589 53.0636C53.0731 54.8778 54.0937 57.3375 54.0968 59.9032V73.4516ZM40.5484 30.871C41.6968 30.871 42.8194 31.2115 43.7743 31.8495C44.7291 32.4876 45.4734 33.3944 45.9128 34.4554C46.3523 35.5164 46.4673 36.6839 46.2433 37.8102C46.0192 38.9365 45.4662 39.9711 44.6542 40.7832C43.8421 41.5952 42.8075 42.1483 41.6812 42.3723C40.5548 42.5963 39.3873 42.4814 38.3264 42.0419C37.2654 41.6024 36.3585 40.8582 35.7205 39.9033C35.0825 38.9484 34.7419 37.8258 34.7419 36.6774C34.7419 35.1374 35.3537 33.6606 36.4426 32.5716C37.5315 31.4827 39.0084 30.871 40.5484 30.871ZM40.5484 27C38.6344 27 36.7633 27.5676 35.1719 28.6309C33.5805 29.6943 32.3401 31.2057 31.6076 32.974C30.8752 34.7423 30.6835 36.6882 31.0569 38.5654C31.4303 40.4426 32.352 42.167 33.7054 43.5204C35.0588 44.8738 36.7832 45.7955 38.6604 46.1689C40.5377 46.5423 42.4835 46.3506 44.2518 45.6182C46.0201 44.8857 47.5315 43.6453 48.5949 42.0539C49.6582 40.4625 50.2258 38.5914 50.2258 36.6774C50.2258 34.1108 49.2062 31.6493 47.3914 29.8344C45.5765 28.0196 43.115 27 40.5484 27Z" fill="black"/>
</g>
<defs>
<filter id="filter0_d_205_2" x="0" y="0" width="114" height="108.452" filterUnits="userSpaceOnUse" color-interpolation-filters="sRGB">
<feFlood flood-opacity="0" result="BackgroundImageFix"/>
<feColorMatrix in="SourceAlpha" type="matrix" values="0 0 0 0 0 0 0 0 0 0 0 0 0 0 0 0 0 0 127 0" result="hardAlpha"/>
<feOffset dy="4"/>
<feGaussianBlur stdDeviation="2"/>
<feComposite in2="hardAlpha" operator="out"/>
<feColorMatrix type="matrix" values="0 0 0 0 0 0 0 0 0 0 0 0 0 0 0 0 0 0 0.25 0"/>
<feBlend mode="normal" in2="BackgroundImageFix" result="effect1_dropShadow_205_2"/>
<feBlend mode="normal" in="SourceGraphic" in2="effect1_dropShadow_205_2" result="shape"/>
</filter>
</defs>
</svg>
