<svg width="108" height="116" viewBox="0 0 108 116" fill="none" xmlns="http://www.w3.org/2000/svg">
<g filter="url(#filter0_d_201_106)">
<rect x="4" width="100" height="108" rx="50" fill="white"/>
<path d="M58.5 40.5V36H49.5V40.5H58.5ZM36 45V69.75H72V45H36ZM72 40.5C74.4975 40.5 76.5 42.5025 76.5 45V69.75C76.5 72.2475 74.4975 74.25 72 74.25H36C33.5025 74.25 31.5 72.2475 31.5 69.75L31.5225 45C31.5225 42.5025 33.5025 40.5 36 40.5H45V36C45 33.5025 47.0025 31.5 49.5 31.5H58.5C60.9975 31.5 63 33.5025 63 36V40.5H72Z" fill="black"/>
</g>
<defs>
<filter id="filter0_d_201_106" x="0" y="0" width="108" height="116" filterUnits="userSpaceOnUse" color-interpolation-filters="sRGB">
<feFlood flood-opacity="0" result="BackgroundImageFix"/>
<feColorMatrix in="SourceAlpha" type="matrix" values="0 0 0 0 0 0 0 0 0 0 0 0 0 0 0 0 0 0 127 0" result="hardAlpha"/>
<feOffset dy="4"/>
<feGaussianBlur stdDeviation="2"/>
<feComposite in2="hardAlpha" operator="out"/>
<feColorMatrix type="matrix" values="0 0 0 0 0 0 0 0 0 0 0 0 0 0 0 0 0 0 0.25 0"/>
<feBlend mode="normal" in2="BackgroundImageFix" result="effect1_dropShadow_201_106"/>
<feBlend mode="normal" in="SourceGraphic" in2="effect1_dropShadow_201_106" result="shape"/>
</filter>
</defs>
</svg>
